<svg id="Capa_1" enable-background="new 0 0 512 512" height="512" viewBox="0 0 512 512" width="512" xmlns="http://www.w3.org/2000/svg"><g><path d="m256 69.37v373.26c0 38.25-31.12 69.37-69.37 69.37-33.98 0-62.33-24.55-68.24-56.85-41.52-2.24-74.61-36.73-74.61-78.8 0-4.78.43-9.51 1.27-14.16-20.26-12.76-33.16-35.39-33.16-59.84 0-17.3 6.27-33.66 17.33-46.35.03-.04.07-.08.1-.12-11.12-12.71-17.43-29.12-17.43-46.46 0-24.42 12.89-47.05 33.12-59.82-.81-4.58-1.23-9.24-1.23-13.95 0-42.07 33.09-76.56 74.61-78.8 5.91-32.3 34.26-56.85 68.24-56.85 38.25 0 69.37 31.12 69.37 69.37z" fill="#fd4b49"/><path d="m482.78 256c11.06 12.69 17.33 29.05 17.33 46.35 0 15.9-5.46 31.04-14.85 43.18-5.04 6.53-23.23 12.2-30.31 16.66.79 4.38 13.22 8.84 13.26 13.34.01.27.01.55.01.82 0 42.07-33.09 76.55-74.61 78.8-5.91 32.3-34.26 56.85-68.24 56.85-38.25 0-69.37-31.12-69.37-69.37v-252.442l11-14.018-11-15.804v-90.996c0-38.25 31.12-69.37 69.37-69.37 33.98 0 62.33 24.55 68.24 56.85 41.52 2.25 74.61 36.73 74.61 78.8 0 4.71-.42 9.37-1.23 13.95 20.23 12.77 33.12 35.4 33.12 59.82 0 17.34-6.31 33.75-17.43 46.46.03.04.07.08.1.12z" fill="#00b3ff"/><path d="m500.11 302.35c0 15.9-5.46 31.04-14.85 43.18-5.04 6.53-26.23 12.2-33.31 16.66.79 4.38 16.22 8.84 16.26 13.34.01.27.01.55.01.82 0 42.07-33.09 76.55-74.61 78.8-5.91 32.3-34.26 56.85-68.24 56.85-38.25 0-69.37-31.12-69.37-69.37v-186.63h226.78c11.06 12.69 17.33 29.05 17.33 46.35z" fill="#0174f9"/><path d="m256 256v186.63c0 38.25-31.12 69.37-69.37 69.37-33.98 0-62.33-24.55-68.24-56.85-41.52-2.24-74.61-36.73-74.61-78.8 0-4.78.43-9.51 1.27-14.16-20.26-12.76-33.16-35.39-33.16-59.84 0-17.3 6.27-33.66 17.33-46.35z" fill="#e70b69"/><g fill="#fe9100"><path d="m256 160.25h65.5v30h-65.5z"/><path d="m466.95 362.19c.79 4.38 1.22 8.84 1.26 13.34h-77.72v-30h94.77c-5.04 6.53-11.23 12.2-18.31 16.66z"/><path d="m343.494 274.389h30v48.452h-30z"/><path d="m425.96 228.5-48.331-27.154 14.799-26.096 48.331 27.154z"/></g><circle cx="353.5" cy="175.25" fill="#c0ddff" r="47"/><circle cx="358.494" cy="360.528" fill="#c0ddff" r="47"/></g></svg>