<?xml version="1.0" encoding="iso-8859-1"?>
<!-- Generator: Adobe Illustrator 22.0.0, SVG Export Plug-In . SVG Version: 6.00 Build 0)  -->
<svg xmlns="http://www.w3.org/2000/svg" xmlns:xlink="http://www.w3.org/1999/xlink" version="1.1" id="Capa_1" x="0px" y="0px" viewBox="0 0 512 512" style="enable-background:new 0 0 512 512;" xml:space="preserve" width="512" height="512">
<g>
	<polygon style="fill:#012631;" points="182,175 152,175 152,130 105,130 105,175 75,175 75,100 182,100  "/>
	<path style="fill:#008BAA;" d="M452,160l-40,90l40,90c0,16.569,13.431,30,30,30s30-13.431,30-30V220   C512,186.863,485.137,160,452,160z"/>
	<path style="fill:#00ADD2;" d="M369.5,0L337,65l32.5,65c35.898,0,65-29.101,65-65S405.399,0,369.5,0z"/>
	<path style="fill:#00CFFA;" d="M304.5,65c0,35.899,29.102,65,65,65V0C333.602,0,304.5,29.101,304.5,65z"/>
	<polygon style="fill:#00ADD2;" points="369.5,160 319.5,242.5 369.5,340 384.5,340 384.5,512 452,512 452,160  "/>
	<polygon style="fill:#00CFFA;" points="287,160 287,512 354.5,512 354.5,340 369.5,340 369.5,160  "/>
	<path style="fill:#FF6737;" d="M257,340h-45l-15-30l-15,30H75l-15-30l-15,30H0V160h45l15,30l15-30h107l15,30L212,160h45V340z"/>
	<rect x="182" y="160" style="fill:#FF4437;" width="30" height="180"/>
	<rect x="45" y="160" style="fill:#FF4437;" width="30" height="180"/>
</g>















</svg>
