<svg height="512pt" viewBox="0 -16 512 512" width="512pt" xmlns="http://www.w3.org/2000/svg"><path d="m512 195c0 41.398438-34.601562 75-76 75h-360c-41.398438 0-76-33.601562-76-75 0-24.601562 13-47.101562 32.800781-61.199219-1.199219-4.5-1.800781-9-1.800781-13.800781 0-21.601562 11.699219-41.398438 30.300781-51.902344 3.597657-38.097656 35.699219-68.097656 74.699219-68.097656s71.101562 30 74.699219 68.097656c18.601562 10.503906 30.300781 30.300782 30.300781 51.902344 0 4.800781-.601562 9.300781-1.800781 13.800781 6.601562 4.800781 12 10.199219 16.800781 16.5 4.800781-6.300781 10.199219-11.699219 16.800781-16.5-1.199219-4.5-1.800781-9-1.800781-13.800781 0-21.601562 11.699219-41.398438 30.300781-51.902344 3.597657-38.097656 35.699219-68.097656 74.699219-68.097656s71.101562 30 74.699219 68.097656c18.601562 10.503906 30.300781 30.300782 30.300781 51.902344 0 4.800781-.601562 9.300781-1.800781 13.800781 19.800781 14.097657 32.800781 36.597657 32.800781 61.199219zm0 0" fill="#9cdd05"/><path d="m512 195c0 41.398438-34.601562 75-76 75h-180v-119.699219c4.800781-6.300781 10.199219-11.699219 16.800781-16.5-1.199219-4.5-1.800781-9-1.800781-13.800781 0-21.601562 11.699219-41.398438 30.300781-51.902344 3.597657-38.097656 35.699219-68.097656 74.699219-68.097656s71.101562 30 74.699219 68.097656c18.601562 10.503906 30.300781 30.300782 30.300781 51.902344 0 4.800781-.601562 9.300781-1.800781 13.800781 19.800781 14.097657 32.800781 36.597657 32.800781 61.199219zm0 0" fill="#6b0"/><g fill="#575f64"><path d="m121 135h30v135h-30zm0 0"/><path d="m136 156.210938-40.605469-40.605469 21.210938-21.210938 19.394531 19.394531 19.394531-19.394531 21.210938 21.210938zm0 0"/><path d="m86.605469 154.394531 60 60-21.210938 21.210938-60-60zm0 0"/></g><path d="m361 135h30v135h-30zm0 0" fill="#32393f"/><path d="m376 156.210938-40.605469-40.605469 21.210938-21.210938 19.394531 19.394531 19.394531-19.394531 21.210938 21.210938zm0 0" fill="#32393f"/><path d="m425.394531 154.390625 21.210938 21.210937-60 60-21.210938-21.210937zm0 0" fill="#32393f"/><path d="m481 465v8.398438h-450v-8.398438c.601562-15.300781 2.101562-30.300781 4.800781-45l55.199219-30v-30l-23.699219-30c38.097657-71.101562 103.800781-126.300781 184.5-149.402344l4.199219-1.199218 4.199219 1.199218c80.699219 23.101563 146.402343 78.300782 184.5 149.402344l-23.699219 30v30l55.199219 30c2.699219 14.699219 4.199219 29.699219 4.800781 45zm0 0" fill="#73bcff"/><path d="m481 465v8.398438h-225v-294l4.199219 1.199218c80.699219 23.101563 146.402343 78.300782 184.5 149.402344l-23.699219 30v30l55.199219 30c2.699219 14.699219 4.199219 29.699219 4.800781 45zm0 0" fill="#0095ff"/><path d="m151 330h-83.671875c-14.988281 27.910156-25.707031 58.226562-31.433594 90h115.105469zm0 0" fill="#0095ff"/><path d="m361 330v90h115.105469c-5.726563-31.773438-16.445313-62.089844-31.433594-90zm0 0" fill="#006eff"/><path d="m331 435v30h-150v-30c0-41.398438 33.601562-75 75-75s75 33.601562 75 75zm0 0" fill="#ececf1"/><path d="m331 435v30h-75v-105c41.398438 0 75 33.601562 75 75zm0 0" fill="#d3d3d8"/><path d="m0 450h512v30h-512zm0 0" fill="#9cdd05"/><path d="m256 450h256v30h-256zm0 0" fill="#6b0"/></svg>