<svg height="512pt" viewBox="0 -51 512 512" width="512pt" xmlns="http://www.w3.org/2000/svg"><path d="m425.300781 232.5-169.300781 84.300781-168.300781-84.300781 30.601562-93.300781h276.398438zm0 0" fill="#53433f"/><path d="m482 312.574219v-207.574219h-30v207.574219l-29.222656 87.679687 28.445312 9.492188 15.777344-47.3125 15.777344 47.3125 28.445312-9.492188zm0 0" fill="#ffb64c"/><path d="m425.300781 232.5-169.300781 84.300781v-177.601562h138.699219zm0 0" fill="#3e322e"/><path d="m512 105-256 105-256-105 256-105zm0 0" fill="#725d57"/><path d="m512 105-256 105v-210zm0 0" fill="#53433f"/><path d="m234.695312 104.988281 21.300782-21.300781 21.296875 21.300781-21.296875 21.300781zm0 0" fill="#ffd396"/><path d="m277.300781 105-21.300781 21.300781v-42.601562zm0 0" fill="#ffb64c"/></svg>