<?xml version="1.0" encoding="iso-8859-1"?>
<!-- Generator: Adobe Illustrator 19.0.0, SVG Export Plug-In . SVG Version: 6.00 Build 0)  -->
<svg version="1.1" id="Capa_1" xmlns="http://www.w3.org/2000/svg" xmlns:xlink="http://www.w3.org/1999/xlink" x="0px" y="0px"
	 viewBox="0 0 512 512" style="enable-background:new 0 0 512 512;" xml:space="preserve">
<polygon style="fill:#3C3A41;" points="422,170.2 422,294.401 256,393.401 91,294.401 91,170.2 "/>
<polygon style="fill:#2B292C;" points="422,170.2 422,294.401 256,393.401 256,170.2 "/>
<polygon style="fill:#57555C;" points="512,136 256,271 0,136 256,0 "/>
<polygon style="fill:#3C3A41;" points="512,136 256,271 256,0 "/>
<g>
	<polygon style="fill:#FEA832;" points="482,121 482,346 452,346 452,151 271,151 271,121 	"/>
	<path style="fill:#FEA832;" d="M467,391c-24.901,0-45,20.099-45,45v76h90v-76C512,411.099,491.901,391,467,391z"/>
</g>
<g>
	<rect x="467" y="121" style="fill:#FE9923;" width="15" height="225"/>
	<path style="fill:#FE9923;" d="M512,436v76h-45V391C491.901,391,512,411.099,512,436z"/>
</g>
<path style="fill:#FEDB41;" d="M467,331c-24.901,0-45,20.099-45,45c0,24.899,20.099,45,45,45s45-20.101,45-45
	C512,351.099,491.901,331,467,331z"/>
<path style="fill:#FCBF29;" d="M512,376c0,24.899-20.099,45-45,45v-90C491.901,331,512,351.099,512,376z"/>
<path style="fill:#FEDB41;" d="M256,91c-33.6,0-60,19.799-60,45s26.4,45,60,45s60-19.799,60-45S289.6,91,256,91z"/>
<path style="fill:#FCBF29;" d="M316,136c0,25.201-26.4,45-60,45V91C289.6,91,316,110.799,316,136z"/>
<g>
</g>
<g>
</g>
<g>
</g>
<g>
</g>
<g>
</g>
<g>
</g>
<g>
</g>
<g>
</g>
<g>
</g>
<g>
</g>
<g>
</g>
<g>
</g>
<g>
</g>
<g>
</g>
<g>
</g>
</svg>
