<?xml version="1.0" encoding="iso-8859-1"?>
<!-- Generator: Adobe Illustrator 19.0.0, SVG Export Plug-In . SVG Version: 6.00 Build 0)  -->
<svg version="1.1" id="Capa_1" xmlns="http://www.w3.org/2000/svg" xmlns:xlink="http://www.w3.org/1999/xlink" x="0px" y="0px"
	 viewBox="0 0 512 512" style="enable-background:new 0 0 512 512;" xml:space="preserve">
<g>
	<polygon style="fill:#FF9F00;" points="511.224,465.181 481.224,375.181 467,379.927 452.776,375.181 422.776,465.181 
		451.224,474.673 467,427.344 482.776,474.673 	"/>
	<rect x="452" y="149.53" style="fill:#FF9F00;" width="30" height="170.4"/>
</g>
<path style="fill:#FDBF00;" d="M482,307.626c-4.799-1.8-9.6-2.699-15-2.699s-10.201,0.899-15,2.699c-17.401,6-30,22.8-30,42.301
	c0,24.899,20.099,45,45,45s45-20.101,45-45C512,330.426,499.401,313.626,482,307.626z"/>
<path style="fill:#53433F;" d="M121,163.326v96.601c0,42.9,57.9,75,135,75s135-32.1,135-75v-96.601H121z"/>
<path style="fill:#3E322E;" d="M391,163.326v96.601c0,42.9-57.9,75-135,75V163.326H391z"/>
<path style="fill:#68544F;" d="M256,37.327L0,139.927l256,102.599l196-78.3l30-12.001l30-12.299L256,37.327z"/>
<polygon style="fill:#53433F;" points="512,139.927 482,152.226 452,164.227 256,242.526 256,37.327 "/>
<g>
</g>
<g>
</g>
<g>
</g>
<g>
</g>
<g>
</g>
<g>
</g>
<g>
</g>
<g>
</g>
<g>
</g>
<g>
</g>
<g>
</g>
<g>
</g>
<g>
</g>
<g>
</g>
<g>
</g>
</svg>
