<?xml version="1.0" encoding="iso-8859-1"?>
<!-- Generator: Adobe Illustrator 19.0.0, SVG Export Plug-In . SVG Version: 6.00 Build 0)  -->
<svg version="1.1" id="Capa_1" xmlns="http://www.w3.org/2000/svg" xmlns:xlink="http://www.w3.org/1999/xlink" x="0px" y="0px"
	 viewBox="0 0 512 512" style="enable-background:new 0 0 512 512;" xml:space="preserve">
<path style="fill:#4E6582;" d="M269.631,391.554v44.736c0,8.295-6.724,15.009-15.009,15.009s-15.009-6.714-15.009-15.009v-44.736
	c0-8.295,6.724-15.009,15.009-15.009S269.631,383.259,269.631,391.554z"/>
<path style="fill:#2D4968;" d="M269.631,391.554v44.736c0,8.295-6.724,15.009-15.009,15.009v-74.753
	C262.907,376.545,269.631,383.259,269.631,391.554z"/>
<path style="fill:#FFD561;" d="M406.43,163.683c0,26.825-7.104,53.201-20.542,76.254c-11.707,20.082-27.956,37.271-47.287,50.109
	v71.941c0,24.574-19.992,44.576-44.566,44.576h-78.825c-24.574,0-44.566-20.002-44.566-44.576v-72.172
	c-19.181-12.817-35.31-29.917-46.937-49.879c-13.448-23.063-20.552-49.428-20.552-76.254c0-83.558,67.939-151.547,151.467-151.637
	h0.17C338.41,12.045,406.43,80.065,406.43,163.683z"/>
<path style="fill:#FFB64C;" d="M406.43,163.683c0,26.825-7.104,53.201-20.542,76.254c-11.707,20.082-27.956,37.271-47.287,50.109
	v71.941c0,24.574-19.992,44.576-44.566,44.576h-39.413V12.045h0.17C338.41,12.045,406.43,80.065,406.43,163.683z"/>
<path style="fill:#FF712F;" d="M338.601,315.229v46.757c0,24.574-19.992,44.576-44.566,44.576h-78.825
	c-24.574,0-44.566-20.002-44.566-44.576v-46.757H338.601z"/>
<g>
	<path style="fill:#FFF2D4;" d="M14.992,313.741c-7.627,0-14.155-5.789-14.919-13.538c-0.813-8.249,5.216-15.595,13.465-16.407
		l66.852-6.586c8.263-0.813,15.595,5.216,16.407,13.465c0.812,8.249-5.216,15.595-13.465,16.407l-66.852,6.586
		C15.981,313.717,15.483,313.741,14.992,313.741z"/>
	<path style="fill:#FFF2D4;" d="M37.132,420.538c-5.733,0-11.206-3.303-13.704-8.872c-3.391-7.564-0.008-16.445,7.555-19.835
		l66.027-29.601c7.567-3.392,16.444-0.008,19.835,7.555c3.391,7.564,0.008,16.445-7.555,19.835l-66.027,29.601
		C41.268,420.115,39.183,420.538,37.132,420.538z"/>
	<path style="fill:#FFF2D4;" d="M112.099,499.322c-4.132,0-8.247-1.696-11.212-5.025c-5.513-6.191-4.965-15.677,1.225-21.191
		l31.604-28.152c6.19-5.512,15.676-4.967,21.191,1.225c5.513,6.191,4.965,15.677-1.225,21.19l-31.604,28.152
		C119.217,498.068,115.651,499.322,112.099,499.322z"/>
</g>
<g>
	<path style="fill:#F9D8B4;" d="M497.008,314.373c-0.492,0-0.989-0.024-1.489-0.073l-66.852-6.586
		c-8.249-0.813-14.278-8.159-13.465-16.407s8.164-14.266,16.407-13.465l66.852,6.586c8.249,0.813,14.278,8.159,13.465,16.407
		C511.163,308.583,504.634,314.373,497.008,314.373z"/>
	<path style="fill:#F9D8B4;" d="M474.868,421.169c-2.052,0-4.137-0.423-6.132-1.317L402.71,390.25
		c-7.563-3.392-10.945-12.272-7.555-19.835c3.392-7.563,12.27-10.946,19.835-7.555l66.027,29.602
		c7.563,3.392,10.945,12.272,7.555,19.835C486.075,417.867,480.6,421.169,474.868,421.169z"/>
	<path style="fill:#F9D8B4;" d="M399.9,499.955c-3.553,0-7.117-1.254-9.979-3.802l-31.604-28.153
		c-6.19-5.513-6.737-15.001-1.224-21.19c5.514-6.189,15.002-6.734,21.19-1.224l31.604,28.153c6.19,5.513,6.737,15.001,1.224,21.19
		C408.147,498.257,404.032,499.955,399.9,499.955z"/>
</g>
<path style="fill:#FF3636;" d="M254.622,315.229h83.978v46.757c0,24.574-19.992,44.576-44.566,44.576h-39.413V315.229z"/>
<g>
</g>
<g>
</g>
<g>
</g>
<g>
</g>
<g>
</g>
<g>
</g>
<g>
</g>
<g>
</g>
<g>
</g>
<g>
</g>
<g>
</g>
<g>
</g>
<g>
</g>
<g>
</g>
<g>
</g>
</svg>
