<svg height="512pt" viewBox="0 -1 512 512" width="512pt" xmlns="http://www.w3.org/2000/svg"><path d="m466 120-30 15h-300c-33 0-60-27-60-60s27-60 60-60h300l30 15c-3.601562 0-15 15.898438-15 45 0 29.097656 11.398438 45 15 45zm0 0" fill="#faecd8"/><path d="m466 120-30 15h-300c-33 0-60-27-60-60h375c0 29.097656 11.398438 45 15 45zm0 0" fill="#f9d8b4"/><path d="m91 75c0 24.898438 20.097656 45 45 45h376v30h-376c-41.398438 0-75-33.601562-75-75s33.601562-75 75-75h376v30h-376c-24.902344 0-45 20.101562-45 45zm0 0" fill="#804231"/><path d="m512 120v30h-376c-41.398438 0-75-33.601562-75-75h30c0 24.898438 20.097656 45 45 45zm0 0" fill="#663325"/><path d="m436 225c0 33-27 60-60 60h-300l-30-15c3.601562 0 15-15.902344 15-45 0-29.101562-11.398438-45-15-45l30-15h300c33 0 60 27 60 60zm0 0" fill="#faecd8"/><path d="m436 225c0 33-27 60-60 60h-300l-30-15c3.601562 0 15-15.902344 15-45zm0 0" fill="#f9d8b4"/><path d="m451 225c0 41.398438-33.601562 75-75 75h-376v-30h376c24.902344 0 45-20.101562 45-45 0-24.902344-20.097656-45-45-45h-376v-30h376c41.398438 0 75 33.601562 75 75zm0 0" fill="#fdbf00"/><path d="m151 210h210v30h-210zm0 0" fill="#f4d7af"/><path d="m151 225h210v15h-210zm0 0" fill="#f2bf81"/><path d="m451 225c0 41.398438-33.601562 75-75 75h-376v-30h376c24.902344 0 45-20.101562 45-45zm0 0" fill="#ff9f00"/><path d="m271 90v132.898438l-60-39.898438-60 39.898438v-132.898438l30-15h60zm0 0" fill="#ff4b00"/><path d="m151 60h210v30h-210zm0 0" fill="#f4d7af"/><path d="m151 75h210v15h-210zm0 0" fill="#f2bf81"/><path d="m466 420-30 15h-300c-33 0-60-27-60-60s27-60 60-60h300l30 15c-3.601562 0-15 15.898438-15 45 0 29.097656 11.398438 45 15 45zm0 0" fill="#faecd8"/><path d="m466 420-30 15h-300c-33 0-60-27-60-60h375c0 29.097656 11.398438 45 15 45zm0 0" fill="#f9d8b4"/><path d="m91 375c0 24.898438 20.097656 45 45 45h376v30h-376c-41.398438 0-75-33.601562-75-75s33.601562-75 75-75h376v30h-376c-24.902344 0-45 20.101562-45 45zm0 0" fill="#804231"/><path d="m512 420v30h-376c-41.398438 0-75-33.601562-75-75h30c0 24.898438 20.097656 45 45 45zm0 0" fill="#663325"/><path d="m271 390v119.898438l-60-39.898438-60 39.898438v-119.898438l30-15h60zm0 0" fill="#ff4b00"/><path d="m151 360h210v30h-210zm0 0" fill="#f4d7af"/><path d="m151 375h210v15h-210zm0 0" fill="#f2bf81"/></svg>