<?xml version="1.0" encoding="iso-8859-1"?>
<!-- Generator: Adobe Illustrator 19.0.0, SVG Export Plug-In . SVG Version: 6.00 Build 0)  -->
<svg version="1.1" id="Capa_1" xmlns="http://www.w3.org/2000/svg" xmlns:xlink="http://www.w3.org/1999/xlink" x="0px" y="0px"
	 viewBox="0 0 512 512" style="enable-background:new 0 0 512 512;" xml:space="preserve">
<path style="fill:#ACE9FA;" d="M353.239,270.286H158.761c-26.309,0-47.712,21.404-47.712,47.712V497c0,8.284,6.716,15,15,15h259.903
	c8.284,0,15-6.716,15-15V317.998C400.952,291.689,379.548,270.286,353.239,270.286z"/>
<path style="fill:#EDFFFF;" d="M256,270.286h-97.239c-26.309,0-47.712,21.404-47.712,47.712V497c0,8.284,6.716,15,15,15H256V270.286
	z"/>
<path style="fill:#56D8E3;" d="M197.984,305.724c-8.284,0-15,6.716-15,15v83.436c0,8.284,6.716,15,15,15s15-6.716,15-15v-83.436
	C212.984,312.44,206.269,305.724,197.984,305.724z"/>
<path style="fill:#47B2F5;" d="M314.016,305.724c-8.284,0-15,6.716-15,15v83.436c0,8.284,6.716,15,15,15s15-6.716,15-15v-83.436
	C329.016,312.44,322.3,305.724,314.016,305.724z"/>
<path style="fill:#409ED4;" d="M111.048,497c0,8.284,6.716,15,15,15h259.903c8.284,0,15-6.716,15-15v-72.814H111.048V497z"/>
<path style="fill:#56D8E3;" d="M256,424.186H111.048V497c0,8.284,6.716,15,15,15H256V424.186z"/>
<path style="fill:#EBAE9D;" d="M362.443,83.444H154.191c-8.284,0-15,6.716-15,15v169.791c0,45.448,36.975,82.423,82.423,82.423
	h73.406c45.448,0,82.423-36.975,82.423-82.423V98.444C377.443,90.16,370.727,83.444,362.443,83.444z"/>
<path style="fill:#FFC1B3;" d="M256,83.444H154.191c-8.284,0-15,6.716-15,15v169.791c0,45.448,36.975,82.423,82.423,82.423H256
	V83.444z"/>
<path style="fill:#444D52;" d="M282.409,164.677c-16.043-10.863-36.774-10.863-52.817,0c-6.86,4.645-8.655,13.971-4.01,20.831
	c4.645,6.859,13.97,8.655,20.831,4.01c5.825-3.943,13.352-3.943,19.177,0c2.578,1.745,5.502,2.582,8.396,2.581
	c4.81,0,9.535-2.309,12.434-6.591C291.064,178.648,289.269,169.322,282.409,164.677z"/>
<path style="fill:#617075;" d="M256,156.53c-9.194,0-18.388,2.716-26.409,8.147c-6.86,4.645-8.655,13.971-4.01,20.831
	c4.645,6.859,13.97,8.655,20.831,4.01c2.913-1.972,6.25-2.957,9.588-2.958V156.53z"/>
<path style="fill:#9C4672;" d="M309.147,291.128c-3.122-7.673-11.874-11.365-19.547-8.242c-21.667,8.814-45.532,8.814-67.2,0
	c-7.674-3.12-16.425,0.568-19.547,8.242s0.569,16.425,8.242,19.547c14.479,5.89,29.691,8.834,44.905,8.834
	c15.213,0,30.426-2.945,44.904-8.834C308.578,307.553,312.268,298.802,309.147,291.128z"/>
<path style="fill:#D45F8F;" d="M256,289.496c-11.383,0-22.766-2.204-33.6-6.611c-7.674-3.12-16.425,0.568-19.547,8.242
	s0.569,16.425,8.242,19.547c14.479,5.89,29.691,8.834,44.905,8.834V289.496z"/>
<g>
	<path style="fill:#444D52;" d="M286.558,0h-56.482c-55.319,0-100.324,45.005-100.324,100.324c0,8.284,6.716,15,15,15h227.13
		c8.284,0,15-6.716,15-15C386.882,45.005,341.876,0,286.558,0z"/>
	<path style="fill:#444D52;" d="M263.755,0h-33.68c-55.319,0-100.324,45.005-100.324,100.324c0,8.284,6.716,15,15,15h119.004V0z"/>
</g>
<rect x="241" style="fill:#617075;" width="30" height="115.32"/>
<path style="fill:#ACE9FA;" d="M185.116,123.296c-34.809,0-63.128,28.319-63.128,63.128v12.032
	c0,34.809,28.319,63.128,63.128,63.128s63.128-28.319,63.128-63.128v-12.032C248.245,151.616,219.925,123.296,185.116,123.296z"/>
<path style="fill:#EDFFFF;" d="M185.116,123.296c-34.809,0-63.128,28.319-63.128,63.128v12.032
	c0,34.809,28.319,63.128,63.128,63.128V123.296z"/>
<path style="fill:#ACE9FA;" d="M326.884,123.296c-34.809,0-63.128,28.319-63.128,63.128v12.032
	c0,34.809,28.319,63.128,63.128,63.128s63.128-28.319,63.128-63.128v-12.032C390.012,151.616,361.693,123.296,326.884,123.296z"/>
<path style="fill:#EDFFFF;" d="M326.884,123.296c-34.809,0-63.128,28.319-63.128,63.128v12.032
	c0,34.809,28.319,63.128,63.128,63.128V123.296z"/>
<path style="fill:#617075;" d="M188.737,177.441h-7.241c-8.284,0-15,6.716-15,15s6.716,15,15,15h7.241c8.284,0,15-6.716,15-15
	S197.021,177.441,188.737,177.441z"/>
<path style="fill:#889FA8;" d="M185.116,177.441h-3.621c-8.284,0-15,6.716-15,15s6.716,15,15,15h3.621V177.441z"/>
<path style="fill:#617075;" d="M330.504,177.441h-7.241c-8.284,0-15,6.716-15,15s6.716,15,15,15h7.241c8.284,0,15-6.716,15-15
	S338.789,177.441,330.504,177.441z"/>
<path style="fill:#889FA8;" d="M326.884,177.441h-3.621c-8.284,0-15,6.716-15,15s6.716,15,15,15h3.621V177.441z"/>
<rect x="111.05" y="394.19" style="fill:#444D52;" width="289.9" height="30"/>
<rect x="111.05" y="394.19" style="fill:#617075;" width="144.95" height="30"/>
<g>
</g>
<g>
</g>
<g>
</g>
<g>
</g>
<g>
</g>
<g>
</g>
<g>
</g>
<g>
</g>
<g>
</g>
<g>
</g>
<g>
</g>
<g>
</g>
<g>
</g>
<g>
</g>
<g>
</g>
</svg>
