<svg height="512pt" viewBox="0 0 512 512" width="512pt" xmlns="http://www.w3.org/2000/svg"><path d="m473.898438 30-81.898438 45 81.898438 45h38.101562v30h-60l-34 21h-245l-38-21c-40.078125 0-72.851562-31.488281-74.898438-71.058594-.070312-1.332031-.101562-2.652344-.101562-3.941406 0-41.398438 33.601562-75 75-75h377v30zm0 0" fill="#7ed6f4"/><path d="m512 120v30h-60l-34 21h-245l-38-21c-40.078125 0-72.851562-31.488281-74.898438-71.058594-.070312-1.332031-.101562-2.652344-.101562-3.941406h332l81.898438 45zm0 0" fill="#0fa7db"/><path d="m459.199219 90c2.402343 10.800781 7.199219 21 14.699219 30h-338.898438c-24.902344 0-45-20.101562-45-45 0-24.902344 20.097656-45 45-45h338.898438c-7.5 9-12.296876 19.199219-14.699219 30l-22.199219 15zm0 0" fill="#ebf2f0"/><path d="m473.898438 120h-338.898438c-24.902344 0-45-20.101562-45-45h347l22.199219 15c2.402343 10.800781 7.199219 21 14.699219 30zm0 0" fill="#e1ebf0"/><path d="m457.699219 75c0 5.097656.300781 10.199219 1.5 15h-309.199219v-30h309.199219c-1.199219 4.800781-1.5 9.898438-1.5 15zm0 0" fill="#e1ebf0"/><path d="m459.199219 90h-309.199219v-15h307.699219c0 5.097656.300781 10.199219 1.5 15zm0 0" fill="#b4d2d7"/><path d="m413.898438 180-82.898438 45 82.898438 45h23.101562v30l-27 20h-313l-22-20c-40.078125 0-72.851562-31.5-74.898438-71.070312-.070312-1.328126-.101562-2.640626-.101562-3.929688 0-41.398438 33.601562-75 75-75h377v30zm0 0" fill="#ff9100"/><path d="m437 270v30l-27 20h-313l-22-20c-40.078125 0-72.851562-31.5-74.898438-71.070312-.070312-1.328126-.101562-2.640626-.101562-3.929688h331l82.898438 45zm0 0" fill="#ff641a"/><path d="m399.199219 240c2.402343 10.800781 7.199219 21 14.699219 30h-338.898438c-24.902344 0-45-20.101562-45-45 0-24.902344 20.097656-45 45-45h338.898438c-7.5 9-12.296876 19.199219-14.699219 30l-22.199219 15zm0 0" fill="#ebf2f0"/><path d="m413.898438 270h-338.898438c-24.902344 0-45-20.101562-45-45h347l22.199219 15c2.402343 10.800781 7.199219 21 14.699219 30zm0 0" fill="#e1ebf0"/><path d="m397.699219 225c0 5.097656.300781 10.199219 1.5 15h-309.199219v-30h309.199219c-1.199219 4.800781-1.5 9.898438-1.5 15zm0 0" fill="#e1ebf0"/><path d="m399.199219 240h-309.199219v-15h307.699219c0 5.097656.300781 10.199219 1.5 15zm0 0" fill="#b4d2d7"/><path d="m98.101562 330 82.898438 45-82.898438 45h-38.101562v30h377c41.398438 0 75-33.601562 75-75s-33.601562-75-75-75h-377v30zm0 0" fill="#7ed6f4"/><path d="m60 420v30h377c41.398438 0 75-33.601562 75-75h-331l-82.898438 45zm0 0" fill="#0fa7db"/><path d="m112.800781 390c-2.402343 10.800781-7.199219 21-14.699219 30h338.898438c24.902344 0 45-20.101562 45-45 0-24.902344-20.097656-45-45-45h-338.898438c7.5 9 12.296876 19.199219 14.699219 30l22.199219 15zm0 0" fill="#ebf2f0"/><path d="m98.101562 420h338.898438c24.902344 0 45-20.101562 45-45h-347l-22.199219 15c-2.402343 10.800781-7.199219 21-14.699219 30zm0 0" fill="#e1ebf0"/><path d="m211 375v137l75-38.5 75 38.5v-137zm0 0" fill="#ff641a"/><path d="m114.300781 375c0 5.097656-.300781 10.199219-1.5 15h309.199219v-30h-309.199219c1.199219 4.800781 1.5 9.898438 1.5 15zm0 0" fill="#e1ebf0"/><path d="m112.800781 390h309.199219v-15h-307.699219c0 5.097656-.300781 10.199219-1.5 15zm0 0" fill="#b4d2d7"/></svg>