<svg height="512pt" viewBox="0 0 512 512" width="512pt" xmlns="http://www.w3.org/2000/svg"><path d="m512 170.515625c0-20.117187-12.019531-38.0625-30.625-45.71875l-11.417969 27.738281c7.316407 3.011719 12.042969 10.070313 12.042969 17.980469 0 10.714844-8.714844 19.429687-19.429688 19.429687-10.710937 0-19.425781-8.714843-19.425781-19.429687 0-7.910156 4.726563-14.96875 12.039063-17.980469l-11.417969-27.738281c-18.601563 7.65625-30.621094 25.601563-30.621094 45.71875 0 22.03125 14.480469 40.738281 34.425781 47.105469v66.046875h-89.234374v30h119.234374v-96.054688c19.945313-6.367187 34.429688-25.070312 34.429688-47.097656zm0 0" fill="#9facba"/><path d="m64.429688 283.667969v-66.046875c19.945312-6.367188 34.429687-25.074219 34.429687-47.105469 0-20.117187-12.023437-38.0625-30.625-45.71875l-11.417969 27.738281c7.316406 3.011719 12.042969 10.070313 12.042969 17.980469 0 10.714844-8.71875 19.429687-19.429687 19.429687-10.714844 0-19.429688-8.714843-19.429688-19.429687 0-7.910156 4.726562-14.96875 12.042969-17.980469l-11.417969-27.738281c-18.605469 7.65625-30.625 25.601563-30.625 45.71875 0 22.027344 14.484375 40.730469 34.429688 47.097656v96.050781h119.238281v-30h-89.238281zm0 0" fill="#b6c4cf"/><path d="m271 0h-15l-10.664062 21.332031 10.664062 21.335938h15zm0 0" fill="#9facba"/><path d="m241 0h15v42.667969h-15zm0 0" fill="#b6c4cf"/><path d="m271 160h-15l-10.664062 32 10.664062 32h15zm0 0" fill="#9facba"/><path d="m241 160h15v64h-15zm0 0" fill="#b6c4cf"/><path d="m320 160h-128c-32.402344 0-58.667969-26.265625-58.667969-58.667969 0-32.398437 26.265625-58.667969 58.667969-58.667969h128c32.402344 0 58.667969 26.269532 58.667969 58.667969 0 32.402344-26.265625 58.667969-58.667969 58.667969zm0 0" fill="#596c76"/><path d="m320 42.667969h-64v117.332031h64c32.398438 0 58.667969-26.265625 58.667969-58.667969 0-32.398437-26.265625-58.664062-58.667969-58.664062zm0 0" fill="#465a61"/><path d="m294.335938 86.332031h30v30h-30zm0 0" fill="#9facba"/><path d="m187.667969 86.332031h30v30h-30zm0 0" fill="#b6c4cf"/><path d="m320 27.667969h-64l-10.667969 15 10.667969 15h64c24.078125 0 43.667969 19.589843 43.667969 43.667969 0 24.074218-19.589844 43.664062-43.667969 43.664062h-64l-10.667969 15 10.667969 15h64c40.621094 0 73.667969-33.046875 73.667969-73.667969 0-40.617187-33.046875-73.664062-73.667969-73.664062zm0 0" fill="#c5d3dd"/><path d="m192 145c-24.078125 0-43.664062-19.589844-43.664062-43.667969s19.585937-43.664062 43.664062-43.664062h64v-30h-64c-40.617188 0-73.664062 33.046875-73.664062 73.667969 0 40.617187 33.046874 73.664062 73.664062 73.664062h64v-30zm0 0" fill="#d9e7ec"/><path d="m372.335938 209h-116.335938l-10.664062 111 10.664062 95.601562h116.335938zm0 0" fill="#c5d3dd"/><path d="m139.667969 209h116.332031v206.601562h-116.332031zm0 0" fill="#d9e7ec"/><path d="m355 390h-99.621094l-18.710937 58 18.710937 64h99.621094c16.296875 0 43.667969-61 43.667969-61s-10.03125-61-43.667969-61zm0 0" fill="#465a61"/><path d="m157 390c-33.636719 0-39.664062 61-39.664062 61s6.027343 61 39.664062 61h98.378906v-122zm0 0" fill="#596c76"/><path d="m157 512c-33.636719 0-61-27.363281-61-61s27.363281-61 61-61 61 27.363281 61 61-27.363281 61-61 61zm0-92c-17.09375 0-31 13.90625-31 31s13.90625 31 31 31 31-13.90625 31-31-13.90625-31-31-31zm0 0" fill="#b6c4cf"/><path d="m355 512c-33.636719 0-61-27.363281-61-61s27.363281-61 61-61 61 27.363281 61 61-27.363281 61-61 61zm0-92c-17.09375 0-31 13.90625-31 31s13.90625 31 31 31 31-13.90625 31-31-13.90625-31-31-31zm0 0" fill="#9facba"/><path d="m292.121094 283.667969-21.332032 22.996093h-14.789062l-10.664062 13.335938 10.664062 16.664062h27.878906l21.335938-22.996093h25.453125v-30zm0 0" fill="#cc2e43"/><path d="m241.214844 306.664062-21.335938-22.996093h-38.542968v30h25.453124l21.332032 22.996093h27.878906v-30zm0 0" fill="#e63950"/></svg>